<svg xmlns="http://www.w3.org/2000/svg" viewBox="0 0 496 440"><style>.st4{fill:url(#SVGID_3_);stroke-miterlimit:10}.st4,.st5{stroke:#006073}.st5,.st6,.st7,.st8{stroke-miterlimit:10}.st5{fill:#b3f2ff}.st6{fill:#f9ec31}.st6,.st7,.st8{stroke:#231f20;stroke-width:.5}.st7{fill:#f6921e}.st8{fill:#37b34a}.st9{fill:url(#SVGID_4_)}.st10{fill:#003540}.st11{fill:none;stroke:#005573;stroke-linecap:round}.st11,.st12,.st13,.st14{stroke-miterlimit:10}.st12{fill:none;stroke:#fff;stroke-width:.5;stroke-linecap:round}.st13,.st14{fill:url(#SVGID_5_);stroke:#730026}.st14{fill:#ffb3cc}.st15{fill:url(#SVGID_6_)}.st16{fill:#400015}.st17,.st18,.st19{stroke-miterlimit:10}.st17{fill:none;stroke:#730026;stroke-linecap:round}.st18{fill:url(#SVGID_7_);stroke:#735400}.st19{fill:#ffecb3;stroke:#735500}.st20{fill:url(#SVGID_8_)}.st21{fill:#403000}.st22{fill:none;stroke:#735400;stroke-linecap:round;stroke-miterlimit:10}</style><g id="server"><linearGradient id="SVGID_3_" x1="2.419" x2="239.933" y1="70.417" y2="70.417" gradientUnits="userSpaceOnUse"><stop offset="0" stop-color="#02C4EB"/><stop offset=".02" stop-color="#47E0FF"/><stop offset=".42" stop-color="#47E0FF"/><stop offset=".49" stop-color="#0AD6FF"/><stop offset=".98" stop-color="#0AD6FF"/><stop offset="1" stop-color="#02C4EB"/></linearGradient><path d="M239.9 29.7l-18.2-.2v4.9L140 14.6c-6.6-1.6-15.6-1.2-20.1.8L20.2 59.7v-2.2H2.4V99.7c.1 1.5 2.2 2.9 6.2 3.9l93.7 22.6c6.6 1.6 15.6 1.2 20.1-.8l114.9-51.1c1.7-.7 2.5-1.6 2.5-2.5V29.7z" class="st4"/><path d="M237.4 32.1L122.5 83.2c-4.5 2-13.6 2.4-20.1.8L8.7 61.4C2.1 59.8.5 56.9 5 54.9L119.9 3.8c4.5-2 13.6-2.4 20.1-.8l93.7 22.6c6.5 1.6 8.2 4.5 3.7 6.5z" class="st5"/><path d="M226.2 41.1c-.6 1.3-.5 3 .3 3.8.7.9 1.8.5 2.4-.7.6-1.3.5-3-.3-3.8-.8-.9-1.8-.6-2.4.7z" class="st6"/><path d="M220.7 43.5c-.6 1.3-.5 3 .3 3.8.7.9 1.8.5 2.4-.7s.5-3-.3-3.8c-.8-.9-1.8-.5-2.4.7z" class="st7"/><path d="M215.2 46c-.6 1.3-.5 3 .3 3.8.7.9 1.8.5 2.4-.7.6-1.3.5-3-.3-3.8-.8-.9-1.8-.6-2.4.7z" class="st8"/><linearGradient id="SVGID_4_" x1="131.142" x2="140.376" y1="98.441" y2="98.441" gradientUnits="userSpaceOnUse"><stop offset="0" stop-color="#000B0D"/><stop offset="1" stop-color="#00758C"/></linearGradient><path d="M138 116.1l-4.4 1.8c-1.3.6-2.4.2-2.4-.7V83.5c0-1 1.1-2.2 2.4-2.8l4.4-1.8c1.3-.6 2.4-.2 2.4.7v33.7c0 1-1.1 2.3-2.4 2.8z" class="st9"/><path d="M14.7 72.2c0 1.6-1.4 2.6-3 2.2-1.7-.4-3-2-3-3.6s1.4-2.6 3-2.2c1.7.3 3 2 3 3.6zM14.7 84c0 1.6-1.4 2.6-3 2.2s-3-2-3-3.6 1.4-2.6 3-2.2c1.7.4 3 2 3 3.6zM18.9 79.1c0 1.6-1.4 2.6-3 2.2-1.7-.4-3-2-3-3.6s1.4-2.6 3-2.2c1.6.4 3 2 3 3.6zM23.1 74.2c0 1.6-1.4 2.6-3 2.2s-3-2-3-3.6 1.4-2.6 3-2.2 3 2 3 3.6zM23.1 86c0 1.6-1.4 2.6-3 2.2-1.7-.4-3-2-3-3.6s1.4-2.6 3-2.2 3 2 3 3.6zM27.2 81.1c0 1.6-1.4 2.6-3 2.2-1.7-.4-3-2-3-3.6s1.4-2.6 3-2.2c1.6.4 3 2 3 3.6zM31.4 76.2c0 1.6-1.4 2.6-3 2.2-1.7-.4-3-2-3-3.6s1.4-2.6 3-2.2c1.6.3 3 2 3 3.6zM31.4 88c0 1.6-1.4 2.6-3 2.2-1.7-.4-3-2-3-3.6s1.4-2.6 3-2.2c1.6.4 3 2 3 3.6zM35.5 83.1c0 1.6-1.4 2.6-3 2.2-1.7-.4-3-2-3-3.6s1.4-2.6 3-2.2c1.7.4 3 2 3 3.6zM39.7 78.2c0 1.6-1.4 2.6-3 2.2-1.7-.4-3-2-3-3.6s1.4-2.6 3-2.2c1.6.4 3 2 3 3.6zM39.7 90c0 1.6-1.4 2.6-3 2.2-1.7-.4-3-2-3-3.6s1.4-2.6 3-2.2c1.6.4 3 2 3 3.6zM43.8 85.1c0 1.6-1.4 2.6-3 2.2-1.7-.4-3-2-3-3.6s1.4-2.6 3-2.2c1.7.4 3 2 3 3.6zM48 80.2c0 1.6-1.4 2.6-3 2.2-1.7-.4-3-2-3-3.6s1.4-2.6 3-2.2 3 2 3 3.6zM48 92c0 1.6-1.4 2.6-3 2.2-1.7-.4-3-2-3-3.6s1.4-2.6 3-2.2c1.6.4 3 2 3 3.6zM52.2 87.1c0 1.6-1.4 2.6-3 2.2-1.7-.4-3-2-3-3.6s1.4-2.6 3-2.2 3 2 3 3.6zM14.7 95.9c0 1.6-1.4 2.6-3 2.2-1.7-.4-3-2-3-3.6s1.4-2.6 3-2.2 3 2 3 3.6zM18.9 90.9c0 1.6-1.4 2.6-3 2.2s-3-2-3-3.6 1.4-2.6 3-2.2c1.6.4 3 2 3 3.6zM23.1 97.9c0 1.6-1.4 2.6-3 2.2-1.7-.4-3-2-3-3.6s1.4-2.6 3-2.2c1.6.3 3 2 3 3.6zM27.2 92.9c0 1.6-1.4 2.6-3 2.2-1.7-.4-3-2-3-3.6s1.4-2.6 3-2.2c1.6.4 3 2 3 3.6zM31.4 99.9c0 1.6-1.4 2.6-3 2.2-1.7-.4-3-2-3-3.6s1.4-2.6 3-2.2c1.6.4 3 2 3 3.6zM35.5 95c0 1.6-1.4 2.6-3 2.2-1.7-.4-3-2-3-3.6s1.4-2.6 3-2.2c1.7.3 3 2 3 3.6zM39.7 101.9c0 1.6-1.4 2.6-3 2.2-1.7-.4-3-2-3-3.6s1.4-2.6 3-2.2c1.6.4 3 2 3 3.6zM43.8 97c0 1.6-1.4 2.6-3 2.2-1.7-.4-3-2-3-3.6s1.4-2.6 3-2.2c1.7.3 3 2 3 3.6zM48 103.9c0 1.6-1.4 2.6-3 2.2s-3-2-3-3.6 1.4-2.6 3-2.2c1.6.4 3 2 3 3.6zM52.2 99c0 1.6-1.4 2.6-3 2.2-1.7-.4-3-2-3-3.6s1.4-2.6 3-2.2c1.6.3 3 2 3 3.6zM56.6 82.2c0 1.6-1.4 2.6-3 2.2-1.7-.4-3-2-3-3.6s1.4-2.6 3-2.2c1.7.4 3 2 3 3.6zM56.6 94c0 1.6-1.4 2.6-3 2.2-1.7-.4-3-2-3-3.6s1.4-2.6 3-2.2c1.7.4 3 2 3 3.6zM60.8 89.1c0 1.6-1.4 2.6-3 2.2-1.7-.4-3-2-3-3.6s1.4-2.6 3-2.2c1.6.4 3 2 3 3.6zM64.9 84.2c0 1.6-1.4 2.6-3 2.2-1.7-.4-3-2-3-3.6s1.4-2.6 3-2.2c1.7.4 3 2 3 3.6zM64.9 96.1c0 1.6-1.4 2.6-3 2.2-1.7-.4-3-2-3-3.6s1.4-2.6 3-2.2c1.7.3 3 2 3 3.6zM56.6 105.9c0 1.6-1.4 2.6-3 2.2-1.7-.4-3-2-3-3.6s1.4-2.6 3-2.2c1.7.4 3 2 3 3.6zM60.8 101c0 1.6-1.4 2.6-3 2.2-1.7-.4-3-2-3-3.6s1.4-2.6 3-2.2c1.6.4 3 2 3 3.6zM64.9 107.9c0 1.6-1.4 2.6-3 2.2-1.7-.4-3-2-3-3.6s1.4-2.6 3-2.2c1.7.4 3 2 3 3.6z" class="st10"/><path d="M171.2 30.4c-.9-.8-2.4-1.5-4.4-2-6.2-1.6-15.5-1.1-21.5 1-.7-.5-1.6-.9-2.9-1.2-5-1.3-12.6-.8-17 1.1-.5.2-1 .5-1.4.7-11.1-1.1-24.4.4-32.9 4.1-3.7 1.6-6 3.4-6.9 5.3m2.9 7.7c-2.3 1.1-3.7 2.4-4.4 3.6" class="st11"/><path d="M82.6 53.7c.9 1.7 3.4 3.2 7.5 4.3 9.7 2.5 24.5 1.5 33.1-2.2l44.9-19.6c1.5-.7 2.6-1.4 3.2-2.1m-87.1 8.6c.6 1.4 2.1 2.7 4.4 3.8" class="st12"/><g><linearGradient id="SVGID_5_" x1="128.769" x2="366.283" y1="100.873" y2="100.873" gradientUnits="userSpaceOnUse"><stop offset="0" stop-color="#EB0250"/><stop offset=".02" stop-color="#FF4784"/><stop offset=".42" stop-color="#FF4784"/><stop offset=".49" stop-color="#FF0A5C"/><stop offset=".98" stop-color="#FF0A5C"/><stop offset="1" stop-color="#EB0250"/></linearGradient><path d="M366.3 60.1l-18.2-.2v4.9l-81.8-19.7c-6.6-1.6-15.6-1.2-20.1.8l-99.6 44.3V88h-17.8V130.2c.1 1.5 2.2 2.9 6.2 3.9l93.7 22.6c6.6 1.6 15.6 1.2 20.1-.8l114.9-51.1c1.7-.7 2.5-1.6 2.5-2.5V60.1z" class="st13"/><path d="M363.7 62.6l-114.9 51.1c-4.5 2-13.6 2.4-20.1.8L135 91.8c-6.6-1.6-8.2-4.5-3.7-6.5l114.9-51.1c4.5-2 13.6-2.4 20.1-.8L360 56c6.6 1.6 8.3 4.6 3.7 6.6z" class="st14"/><path d="M352.6 71.5c-.6 1.3-.5 3 .3 3.8.7.9 1.8.5 2.4-.7.6-1.3.5-3-.3-3.8-.8-.8-1.9-.5-2.4.7z" class="st6"/><path d="M347.1 74c-.6 1.3-.5 3 .3 3.8.7.9 1.8.5 2.4-.7s.5-3-.3-3.8c-.8-.9-1.9-.6-2.4.7z" class="st7"/><path d="M341.6 76.4c-.6 1.3-.5 3 .3 3.8.7.9 1.8.5 2.4-.7.6-1.3.5-3-.3-3.8-.8-.8-1.9-.5-2.4.7z" class="st8"/><linearGradient id="SVGID_6_" x1="257.492" x2="266.726" y1="128.897" y2="128.897" gradientUnits="userSpaceOnUse"><stop offset="0" stop-color="#0D0004"/><stop offset="1" stop-color="#8C002F"/></linearGradient><path d="M264.3 146.6l-4.4 1.8c-1.3.6-2.4.2-2.4-.7V114c0-1 1.1-2.2 2.4-2.8l4.4-1.8c1.3-.6 2.4-.2 2.4.7v33.7c0 1-1.1 2.2-2.4 2.8z" class="st15"/><path d="M141.1 102.6c0 1.6-1.4 2.6-3 2.2-1.7-.4-3-2-3-3.6s1.4-2.6 3-2.2c1.6.4 3 2 3 3.6zM141.1 114.5c0 1.6-1.4 2.6-3 2.2-1.7-.4-3-2-3-3.6s1.4-2.6 3-2.2c1.6.3 3 2 3 3.6zM145.2 109.5c0 1.6-1.4 2.6-3 2.2-1.7-.4-3-2-3-3.6s1.4-2.6 3-2.2c1.7.4 3 2 3 3.6zM149.4 104.6c0 1.6-1.4 2.6-3 2.2-1.7-.4-3-2-3-3.6s1.4-2.6 3-2.2c1.6.4 3 2 3 3.6zM149.4 116.5c0 1.6-1.4 2.6-3 2.2-1.7-.4-3-2-3-3.6s1.4-2.6 3-2.2c1.6.3 3 2 3 3.6zM153.6 111.5c0 1.6-1.4 2.6-3 2.2-1.7-.4-3-2-3-3.6s1.4-2.6 3-2.2c1.6.4 3 2 3 3.6zM157.7 106.6c0 1.6-1.4 2.6-3 2.2-1.7-.4-3-2-3-3.6s1.4-2.6 3-2.2c1.7.4 3 2 3 3.6zM157.7 118.5c0 1.6-1.4 2.6-3 2.2-1.7-.4-3-2-3-3.6s1.4-2.6 3-2.2c1.7.4 3 2 3 3.6zM161.9 113.6c0 1.6-1.4 2.6-3 2.2-1.7-.4-3-2-3-3.6s1.4-2.6 3-2.2c1.6.3 3 2 3 3.6zM166 108.6c0 1.6-1.4 2.6-3 2.2-1.7-.4-3-2-3-3.6s1.4-2.6 3-2.2c1.7.4 3 2 3 3.6zM166 120.5c0 1.6-1.4 2.6-3 2.2-1.7-.4-3-2-3-3.6s1.4-2.6 3-2.2c1.7.4 3 2 3 3.6zM170.2 115.6c0 1.6-1.4 2.6-3 2.2-1.7-.4-3-2-3-3.6s1.4-2.6 3-2.2c1.6.3 3 2 3 3.6zM174.4 110.6c0 1.6-1.4 2.6-3 2.2-1.7-.4-3-2-3-3.6s1.4-2.6 3-2.2c1.6.4 3 2 3 3.6zM174.4 122.5c0 1.6-1.4 2.6-3 2.2-1.7-.4-3-2-3-3.6s1.4-2.6 3-2.2c1.6.4 3 2 3 3.6zM178.5 117.6c0 1.6-1.4 2.6-3 2.2-1.7-.4-3-2-3-3.6s1.4-2.6 3-2.2c1.6.4 3 2 3 3.6zM141.1 126.3c0 1.6-1.4 2.6-3 2.2-1.7-.4-3-2-3-3.6s1.4-2.6 3-2.2c1.6.4 3 2 3 3.6zM145.2 121.4c0 1.6-1.4 2.6-3 2.2-1.7-.4-3-2-3-3.6s1.4-2.6 3-2.2c1.7.4 3 2 3 3.6zM149.4 128.3c0 1.6-1.4 2.6-3 2.2-1.7-.4-3-2-3-3.6s1.4-2.6 3-2.2c1.6.4 3 2 3 3.6zM153.6 123.4c0 1.6-1.4 2.6-3 2.2-1.7-.4-3-2-3-3.6s1.4-2.6 3-2.2c1.6.4 3 2 3 3.6zM157.7 130.3c0 1.6-1.4 2.6-3 2.2-1.7-.4-3-2-3-3.6s1.4-2.6 3-2.2c1.7.4 3 2 3 3.6zM161.9 125.4c0 1.6-1.4 2.6-3 2.2-1.7-.4-3-2-3-3.6s1.4-2.6 3-2.2c1.6.4 3 2 3 3.6zM166 132.3c0 1.6-1.4 2.6-3 2.2-1.7-.4-3-2-3-3.6s1.4-2.6 3-2.2c1.7.4 3 2 3 3.6zM170.2 127.4c0 1.6-1.4 2.6-3 2.2-1.7-.4-3-2-3-3.6s1.4-2.6 3-2.2c1.6.4 3 2 3 3.6zM174.4 134.4c0 1.6-1.4 2.6-3 2.2-1.7-.4-3-2-3-3.6s1.4-2.6 3-2.2c1.6.3 3 2 3 3.6zM178.5 129.4c0 1.6-1.4 2.6-3 2.2-1.7-.4-3-2-3-3.6s1.4-2.6 3-2.2c1.6.4 3 2 3 3.6zM183 112.7c0 1.6-1.4 2.6-3 2.2-1.7-.4-3-2-3-3.6s1.4-2.6 3-2.2c1.6.3 3 2 3 3.6zM183 124.5c0 1.6-1.4 2.6-3 2.2-1.7-.4-3-2-3-3.6s1.4-2.6 3-2.2c1.6.4 3 2 3 3.6zM187.1 119.6c0 1.6-1.4 2.6-3 2.2-1.7-.4-3-2-3-3.6s1.4-2.6 3-2.2c1.7.4 3 2 3 3.6zM191.3 114.7c0 1.6-1.4 2.6-3 2.2-1.7-.4-3-2-3-3.6s1.4-2.6 3-2.2c1.6.3 3 2 3 3.6zM191.3 126.5c0 1.6-1.4 2.6-3 2.2-1.7-.4-3-2-3-3.6s1.4-2.6 3-2.2c1.6.4 3 2 3 3.6zM183 136.4c0 1.6-1.4 2.6-3 2.2-1.7-.4-3-2-3-3.6s1.4-2.6 3-2.2c1.6.3 3 2 3 3.6zM187.1 131.4c0 1.6-1.4 2.6-3 2.2-1.7-.4-3-2-3-3.6s1.4-2.6 3-2.2 3 2 3 3.6zM191.3 138.4c0 1.6-1.4 2.6-3 2.2-1.7-.4-3-2-3-3.6s1.4-2.6 3-2.2c1.6.3 3 2 3 3.6z" class="st16"/><path d="M299.5 60.7c-.9-.8-2.4-1.5-4.4-2-6.2-1.6-15.5-1.1-21.5 1-.7-.5-1.6-.9-2.9-1.2-5-1.3-12.6-.8-17 1.1-.5.2-1 .5-1.4.7-11.1-1.1-24.4.4-32.9 4.1-3.7 1.6-6 3.4-6.9 5.3m2.9 7.7c-2.3 1.1-3.7 2.4-4.4 3.6" class="st17"/><path d="M211 83.9c.9 1.7 3.4 3.2 7.5 4.3 9.7 2.5 24.5 1.5 33.1-2.2l44.9-19.6c1.5-.7 2.6-1.4 3.2-2.1m-87.2 8.6c.6 1.4 2.1 2.7 4.4 3.8" class="st12"/></g><g><linearGradient id="SVGID_7_" x1="255.355" x2="492.869" y1="131.453" y2="131.453" gradientUnits="userSpaceOnUse"><stop offset="0" stop-color="#EBB002"/><stop offset=".02" stop-color="#FFD147"/><stop offset=".42" stop-color="#FFD147"/><stop offset=".49" stop-color="#FFC30A"/><stop offset=".98" stop-color="#FFC30A"/><stop offset="1" stop-color="#EBB002"/></linearGradient><path d="M492.9 90.7l-18.2-.2v4.9l-81.8-19.7c-6.6-1.6-15.6-1.2-20.1.8l-99.6 44.3v-2.2h-17.8V160.8c.1 1.5 2.2 2.9 6.2 3.9l93.7 22.6c6.6 1.6 15.6 1.2 20.1-.8l114.9-51.1c1.7-.7 2.5-1.6 2.5-2.5V90.7z" class="st18"/><path d="M490.3 93.2l-114.9 51.1c-4.5 2-13.6 2.4-20.1.8l-93.7-22.6c-6.6-1.6-8.2-4.5-3.7-6.5l114.9-51.1c4.5-2 13.6-2.4 20.1-.8l93.7 22.6c6.6 1.5 8.2 4.5 3.7 6.5z" class="st19"/><path d="M479.1 102.1c-.6 1.3-.5 3 .3 3.8.7.9 1.8.5 2.4-.7.6-1.3.5-3-.3-3.8-.7-.9-1.8-.5-2.4.7z" class="st6"/><path d="M473.6 104.6c-.6 1.3-.5 3 .3 3.8.7.9 1.8.5 2.4-.7.6-1.3.5-3-.3-3.8-.7-.9-1.8-.6-2.4.7z" class="st7"/><path d="M468.1 107c-.6 1.3-.5 3 .3 3.8.7.9 1.8.5 2.4-.7s.5-3-.3-3.8c-.7-.9-1.8-.6-2.4.7z" class="st8"/><linearGradient id="SVGID_8_" x1="384.078" x2="393.312" y1="159.477" y2="159.477" gradientUnits="userSpaceOnUse"><stop offset="0" stop-color="#0D0A00"/><stop offset="1" stop-color="#8C6900"/></linearGradient><path d="M390.9 177.2l-4.4 1.8c-1.3.6-2.4.2-2.4-.7v-33.7c0-1 1.1-2.2 2.4-2.8l4.4-1.8c1.3-.6 2.4-.2 2.4.7v33.7c0 1-1.1 2.2-2.4 2.8z" class="st20"/><path d="M267.7 133.2c0 1.6-1.4 2.6-3 2.2-1.7-.4-3-2-3-3.6s1.4-2.6 3-2.2c1.6.4 3 2 3 3.6zM267.7 145c0 1.6-1.4 2.6-3 2.2-1.7-.4-3-2-3-3.6s1.4-2.6 3-2.2c1.6.4 3 2 3 3.6zM271.8 140.1c0 1.6-1.4 2.6-3 2.2s-3-2-3-3.6 1.4-2.6 3-2.2 3 2 3 3.6zM276 135.2c0 1.6-1.4 2.6-3 2.2s-3-2-3-3.6 1.4-2.6 3-2.2c1.6.4 3 2 3 3.6zM276 147.1c0 1.6-1.4 2.6-3 2.2s-3-2-3-3.6 1.4-2.6 3-2.2 3 2 3 3.6zM280.2 142.1c0 1.6-1.4 2.6-3 2.2-1.7-.4-3-2-3-3.6s1.4-2.6 3-2.2c1.6.4 3 2 3 3.6zM284.3 137.2c0 1.6-1.4 2.6-3 2.2-1.7-.4-3-2-3-3.6s1.4-2.6 3-2.2c1.6.4 3 2 3 3.6zM284.3 149.1c0 1.6-1.4 2.6-3 2.2-1.7-.4-3-2-3-3.6s1.4-2.6 3-2.2c1.6.3 3 2 3 3.6zM288.5 144.1c0 1.6-1.4 2.6-3 2.2-1.7-.4-3-2-3-3.6s1.4-2.6 3-2.2c1.6.4 3 2 3 3.6zM292.6 139.2c0 1.6-1.4 2.6-3 2.2-1.7-.4-3-2-3-3.6s1.4-2.6 3-2.2 3 2 3 3.6zM292.6 151.1c0 1.6-1.4 2.6-3 2.2s-3-2-3-3.6 1.4-2.6 3-2.2c1.7.3 3 2 3 3.6zM296.8 146.1c0 1.6-1.4 2.6-3 2.2-1.7-.4-3-2-3-3.6s1.4-2.6 3-2.2c1.6.4 3 2 3 3.6zM300.9 141.2c0 1.6-1.4 2.6-3 2.2-1.7-.4-3-2-3-3.6s1.4-2.6 3-2.2c1.7.4 3 2 3 3.6zM300.9 153.1c0 1.6-1.4 2.6-3 2.2-1.7-.4-3-2-3-3.6s1.4-2.6 3-2.2c1.7.4 3 2 3 3.6zM305.1 148.2c0 1.6-1.4 2.6-3 2.2-1.7-.4-3-2-3-3.6s1.4-2.6 3-2.2c1.6.3 3 2 3 3.6zM267.7 156.9c0 1.6-1.4 2.6-3 2.2-1.7-.4-3-2-3-3.6s1.4-2.6 3-2.2c1.6.4 3 2 3 3.6zM271.8 152c0 1.6-1.4 2.6-3 2.2-1.7-.4-3-2-3-3.6s1.4-2.6 3-2.2 3 2 3 3.6zM276 158.9c0 1.6-1.4 2.6-3 2.2-1.7-.4-3-2-3-3.6s1.4-2.6 3-2.2 3 2 3 3.6zM280.2 154c0 1.6-1.4 2.6-3 2.2-1.7-.4-3-2-3-3.6s1.4-2.6 3-2.2c1.6.4 3 2 3 3.6zM284.3 160.9c0 1.6-1.4 2.6-3 2.2-1.7-.4-3-2-3-3.6s1.4-2.6 3-2.2c1.6.4 3 2 3 3.6zM288.5 156c0 1.6-1.4 2.6-3 2.2-1.7-.4-3-2-3-3.6s1.4-2.6 3-2.2c1.6.4 3 2 3 3.6zM292.6 162.9c0 1.6-1.4 2.6-3 2.2s-3-2-3-3.6 1.4-2.6 3-2.2 3 2 3 3.6zM296.8 158c0 1.6-1.4 2.6-3 2.2-1.7-.4-3-2-3-3.6s1.4-2.6 3-2.2c1.6.4 3 2 3 3.6zM300.9 164.9c0 1.6-1.4 2.6-3 2.2-1.7-.4-3-2-3-3.6s1.4-2.6 3-2.2c1.7.4 3 2 3 3.6zM305.1 160c0 1.6-1.4 2.6-3 2.2-1.7-.4-3-2-3-3.6s1.4-2.6 3-2.2c1.6.4 3 2 3 3.6zM309.6 143.2c0 1.6-1.4 2.6-3 2.2-1.7-.4-3-2-3-3.6s1.4-2.6 3-2.2c1.6.4 3 2 3 3.6zM309.6 155.1c0 1.6-1.4 2.6-3 2.2-1.7-.4-3-2-3-3.6s1.4-2.6 3-2.2c1.6.4 3 2 3 3.6zM313.7 150.2c0 1.6-1.4 2.6-3 2.2-1.7-.4-3-2-3-3.6s1.4-2.6 3-2.2c1.7.3 3 2 3 3.6zM317.9 145.2c0 1.6-1.4 2.6-3 2.2s-3-2-3-3.6 1.4-2.6 3-2.2c1.6.4 3 2 3 3.6zM317.9 157.1c0 1.6-1.4 2.6-3 2.2-1.7-.4-3-2-3-3.6s1.4-2.6 3-2.2 3 2 3 3.6zM309.6 166.9c0 1.6-1.4 2.6-3 2.2-1.7-.4-3-2-3-3.6s1.4-2.6 3-2.2c1.6.4 3 2 3 3.6zM313.7 162c0 1.6-1.4 2.6-3 2.2-1.7-.4-3-2-3-3.6s1.4-2.6 3-2.2c1.7.4 3 2 3 3.6zM317.9 168.9c0 1.6-1.4 2.6-3 2.2s-3-2-3-3.6 1.4-2.6 3-2.2 3 2 3 3.6z" class="st21"/><path d="M425.2 91.7c-.9-.8-2.4-1.5-4.4-2-6.2-1.6-15.5-1.1-21.5 1-.7-.5-1.6-.9-2.9-1.2-5-1.3-12.6-.8-17 1.1-.5.2-1 .5-1.4.7-11.1-1.1-24.4.4-32.9 4.1-3.7 1.6-6 3.4-6.9 5.3m2.9 7.7c-2.3 1.1-3.7 2.4-4.4 3.6" class="st22"/><path d="M336.7 115c.9 1.7 3.4 3.2 7.5 4.3 9.7 2.5 24.5 1.5 33.1-2.2l44.9-19.6c1.5-.7 2.6-1.4 3.2-2.1m-87.2 8.5c.6 1.4 2.1 2.7 4.4 3.8" class="st12"/></g></g></svg>